<svg width="168" height="28" viewBox="0 0 168 28" fill="none" xmlns="http://www.w3.org/2000/svg">
<path d="M62.125 11.025H52.1062L49 1.3125L45.8938 11.025H35.875L43.9688 17.0188L40.9062 26.6875L49 20.6938L57.0938 26.6875L53.9875 16.975L62.125 11.025Z" fill="#FEBB41"/>
<path d="M27.125 11.025H17.1062L14 1.3125L10.8938 11.025H0.875L8.96875 17.0188L5.90625 26.6875L14 20.6938L22.0938 26.6875L18.9875 16.975L27.125 11.025Z" fill="#FEBB41"/>
<path d="M167.125 11.025H157.106L154 1.3125L150.894 11.025H140.875L148.969 17.0188L145.906 26.6875L154 20.6938L162.094 26.6875L158.987 16.975L167.125 11.025Z" fill="#FEBB41"/>
<path d="M132.125 11.025H122.106L119 1.3125L115.894 11.025H105.875L113.969 17.0188L110.906 26.6875L119 20.6938L127.094 26.6875L123.987 16.975L132.125 11.025Z" fill="#FEBB41"/>
<path d="M97.125 11.025H87.1062L84 1.3125L80.8938 11.025H70.875L78.9688 17.0188L75.9062 26.6875L84 20.6938L92.0938 26.6875L88.9875 16.975L97.125 11.025Z" fill="#FEBB41"/>
</svg>
